<svg width="160" height="160" viewBox="0 0 160 160" fill="none" xmlns="http://www.w3.org/2000/svg">
<path d="M145.647 79.7355C145.647 94.4211 140.714 108.039 132.448 118.986C127.915 124.861 122.45 130.067 116.184 134.073C106.052 140.748 93.9198 144.619 80.8548 144.619C44.9926 144.619 15.9297 115.515 15.9297 79.7355C15.9297 43.8223 44.9927 14.8516 80.7215 14.8516C93.7866 14.8516 105.918 18.7232 116.05 25.2651C122.316 29.2702 127.782 34.477 132.315 40.3513C140.714 51.4322 145.647 65.0498 145.647 79.7355Z" fill="#EAEEF9"/>
<path d="M115.568 133.11L115.562 133.114L115.555 133.118C105.605 139.674 93.6906 143.476 80.8548 143.476C45.6238 143.476 17.0725 114.884 17.0725 79.7355C17.0725 44.4535 45.6239 15.9944 80.7215 15.9944C93.5577 15.9944 105.475 19.7977 115.43 26.2252L115.435 26.228C121.576 30.1532 126.945 35.2645 131.408 41.0457C139.662 51.937 144.504 65.3129 144.504 79.7355C144.504 94.1591 139.661 107.535 131.54 118.292C127.079 124.073 121.709 129.184 115.568 133.11Z" stroke="#E5E9EF" stroke-width="2.28571"/>
<path d="M115.568 133.11L115.562 133.114L115.555 133.118C105.605 139.674 93.6906 143.476 80.8548 143.476C45.6238 143.476 17.0725 114.884 17.0725 79.7355C17.0725 44.4535 45.6239 15.9944 80.7215 15.9944C93.5577 15.9944 105.475 19.7977 115.43 26.2252L115.435 26.228C121.576 30.1532 126.945 35.2645 131.408 41.0457C139.662 51.937 144.504 65.3129 144.504 79.7355C144.504 94.1591 139.661 107.535 131.54 118.292C127.079 124.073 121.709 129.184 115.568 133.11Z" stroke="#E5E9EF" stroke-width="2.28571"/>
<mask id="mask0_56854_32968" style="mask-type:alpha" maskUnits="userSpaceOnUse" x="14" y="0" width="131" height="143">
<path d="M144.506 79.1563C144.506 93.8419 139.574 107.46 131.307 118.407C126.775 124.281 120.768 128.494 114.502 132.5C104.37 139.175 95.567 143 82.502 143C46.6398 143 14.7891 114.936 14.7891 79.1563C14.7891 43.2432 20.2745 2.27294 56.0033 2.27294C69.0684 2.27294 112.728 -1.97997 122.86 4.56187C129.126 8.56702 126.641 33.8978 131.175 39.7721C139.574 50.853 144.506 64.4706 144.506 79.1563Z" fill="#EAEEF9"/>
</mask>
<g mask="url(#mask0_56854_32968)">
<path d="M111.36 12.5703C117.635 12.5703 122.892 17.6653 122.892 24.1189V169.664C122.892 175.949 117.805 181.213 111.36 181.213H49.2901C43.0151 181.213 37.7578 176.118 37.7578 169.664V24.1189C37.7578 17.8351 42.8456 12.5703 49.2901 12.5703H111.36Z" fill="#1C3754"/>
<path d="M118.411 23.6048V169.151C118.411 171.698 116.824 173.736 114.356 174.415C113.827 174.585 113.298 174.585 112.592 174.585H48.053C47.7003 174.585 47.3477 174.585 47.1713 174.585C44.3499 174.076 42.4102 171.868 42.4102 169.151V24.1143C42.4102 21.2272 44.3499 19.0194 47.1713 18.6797C47.5239 18.6797 47.7003 18.6797 48.053 18.6797H57.5752C58.8096 18.6797 59.6912 19.5288 59.6912 20.7177C59.6912 23.0953 61.8072 25.1333 64.276 25.1333H97.0746C99.5434 25.1333 101.659 23.0953 101.659 20.7177C101.659 19.5288 102.541 18.6797 103.775 18.6797H112.769L112.631 18.7024C113.16 18.7024 113.865 18.7024 114.394 18.8722C116.51 19.5516 118.411 21.0573 118.411 23.6048Z" fill="white"/>
<path d="M85.7549 20.0495H77.4449C76.597 20.0495 76.2578 19.2004 76.2578 18.8607C76.2578 18.0115 77.1057 17.6719 77.4449 17.6719H85.7549C86.4332 17.6719 86.9419 18.521 86.9419 18.8607C86.9419 19.7099 86.4332 20.0495 85.7549 20.0495Z" fill="#2D5887"/>
<path d="M72.6903 20.0495H72.3511C71.5032 20.0495 71.1641 19.2004 71.1641 18.8607C71.1641 18.0115 72.0119 17.6719 72.3511 17.6719H72.6903C73.5383 17.6719 73.8775 18.521 73.8775 18.8607C73.8775 19.7099 73.3688 20.0495 72.6903 20.0495Z" fill="#2D5887"/>
</g>
<path d="M13.6961 87.3517C14.8959 87.3517 15.9624 86.4172 15.9624 85.0821C15.9624 83.8806 15.0292 82.8125 13.6961 82.8125C12.3629 82.9461 11.4297 83.8806 11.4297 85.0821C11.4297 86.2837 12.3629 87.3517 13.6961 87.3517Z" fill="url(#paint0_linear_56854_32968)"/>
<path d="M27.1609 136.616C28.3608 136.616 29.4273 135.683 29.4273 134.347C29.4273 133.146 28.4941 132.078 27.1609 132.078C25.961 132.078 24.8945 133.012 24.8945 134.347C25.0279 135.549 25.961 136.616 27.1609 136.616Z" fill="url(#paint1_linear_56854_32968)"/>
<path d="M146.438 42.1862C147.637 42.1862 148.571 41.2517 148.571 40.0501C148.571 38.8486 147.637 37.9141 146.438 37.9141C145.238 37.9141 144.305 38.8486 144.305 40.0501C144.305 41.2517 145.238 42.1862 146.438 42.1862Z" fill="url(#paint2_linear_56854_32968)"/>
<g opacity="0.8">
<circle cx="80" cy="83" r="18" fill="#EC5151"/>
<path d="M86.8768 88.2483L81.565 82.9623L86.8768 77.6764C87.3088 77.2466 87.3088 76.551 86.8768 76.1221C86.4448 75.6924 85.7428 75.6924 85.3108 76.1221L80.0008 81.4063L74.6908 76.1221C74.2588 75.6924 73.5568 75.6924 73.1248 76.1221C72.6928 76.5519 72.6928 77.2466 73.1248 77.6764L78.4366 82.9623L73.1248 88.2483C72.6928 88.678 72.6928 89.3737 73.1248 89.8026C73.5568 90.2323 74.2588 90.2323 74.6908 89.8026L80.0008 84.5184L85.3108 89.8026C85.7428 90.2323 86.4448 90.2323 86.8768 89.8026C87.3088 89.3728 87.3088 88.678 86.8768 88.2483Z" fill="white"/>
</g>
<defs>
<linearGradient id="paint0_linear_56854_32968" x1="11.4297" y1="85.122" x2="15.7393" y2="85.122" gradientUnits="userSpaceOnUse">
<stop stop-color="#83A6FF"/>
<stop offset="1" stop-color="#5A78FF"/>
</linearGradient>
<linearGradient id="paint1_linear_56854_32968" x1="24.9871" y1="134.36" x2="29.2967" y2="134.36" gradientUnits="userSpaceOnUse">
<stop stop-color="#FF66A9"/>
<stop offset="1" stop-color="#F53689"/>
</linearGradient>
<linearGradient id="paint2_linear_56854_32968" x1="144.357" y1="40.1411" x2="148.404" y2="40.1411" gradientUnits="userSpaceOnUse">
<stop stop-color="#83A6FF"/>
<stop offset="1" stop-color="#5A78FF"/>
</linearGradient>
</defs>
</svg>
