<svg width="160" height="160" viewBox="0 0 160 160" fill="none" xmlns="http://www.w3.org/2000/svg">
<path d="M145.647 79.7365C145.647 94.4221 140.714 108.04 132.448 118.987C127.915 124.861 122.45 130.068 116.184 134.074C106.052 140.749 93.9198 144.62 80.8548 144.62C44.9926 144.62 15.9297 115.516 15.9297 79.7365C15.9297 43.8233 44.9927 14.8525 80.7215 14.8525C93.7866 14.8525 105.918 18.7242 116.05 25.2661C122.316 29.2712 127.782 34.4779 132.315 40.3522C140.714 51.4331 145.647 65.0507 145.647 79.7365Z" fill="#EAEEF9"/>
<path d="M115.568 133.111L115.562 133.115L115.555 133.119C105.605 139.675 93.6906 143.477 80.8548 143.477C45.6238 143.477 17.0725 114.885 17.0725 79.7365C17.0725 44.4545 45.6239 15.9954 80.7215 15.9954C93.5577 15.9954 105.475 19.7987 115.43 26.2262L115.435 26.229C121.576 30.1542 126.945 35.2655 131.408 41.0467C139.662 51.938 144.504 65.3139 144.504 79.7365C144.504 94.1601 139.661 107.536 131.54 118.293C127.079 124.074 121.709 129.185 115.568 133.111Z" stroke="#E5E9EF" stroke-width="2.28571"/>
<path d="M115.568 133.111L115.562 133.115L115.555 133.119C105.605 139.675 93.6906 143.477 80.8548 143.477C45.6238 143.477 17.0725 114.885 17.0725 79.7365C17.0725 44.4545 45.6239 15.9954 80.7215 15.9954C93.5577 15.9954 105.475 19.7987 115.43 26.2262L115.435 26.229C121.576 30.1542 126.945 35.2655 131.408 41.0467C139.662 51.938 144.504 65.3139 144.504 79.7365C144.504 94.1601 139.661 107.536 131.54 118.293C127.079 124.074 121.709 129.185 115.568 133.111Z" stroke="#E5E9EF" stroke-width="2.28571"/>
<mask id="mask0_56854_32626" style="mask-type:alpha" maskUnits="userSpaceOnUse" x="14" y="0" width="131" height="144">
<path d="M144.506 79.1573C144.506 93.8429 139.574 107.46 131.307 118.408C126.775 124.282 120.768 128.495 114.502 132.501C104.37 139.176 95.567 143.001 82.502 143.001C46.6398 143.001 14.7891 114.937 14.7891 79.1573C14.7891 43.2442 20.2745 2.27392 56.0033 2.27392C69.0684 2.27392 112.728 -1.97899 122.86 4.56285C129.126 8.56799 126.641 33.8988 131.175 39.7731C139.574 50.854 144.506 64.4716 144.506 79.1573Z" fill="#EAEEF9"/>
</mask>
<g mask="url(#mask0_56854_32626)">
<path d="M111.36 12.5684C117.635 12.5684 122.892 17.6633 122.892 24.1169V169.662C122.892 175.947 117.805 181.211 111.36 181.211H49.2901C43.0151 181.211 37.7578 176.116 37.7578 169.662V24.1169C37.7578 17.8331 42.8456 12.5684 49.2901 12.5684H111.36Z" fill="#1C3754"/>
<path d="M118.411 23.6009V169.147C118.411 171.694 116.824 173.732 114.356 174.411C113.827 174.581 113.298 174.581 112.592 174.581H48.053C47.7003 174.581 47.3477 174.581 47.1713 174.581C44.3499 174.072 42.4102 171.864 42.4102 169.147V24.1104C42.4102 21.2233 44.3499 19.0155 47.1713 18.6758C47.5239 18.6758 47.7003 18.6758 48.053 18.6758H57.5752C58.8096 18.6758 59.6912 19.5249 59.6912 20.7138C59.6912 23.0914 61.8072 25.1294 64.276 25.1294H97.0746C99.5434 25.1294 101.659 23.0914 101.659 20.7138C101.659 19.5249 102.541 18.6758 103.775 18.6758H112.769L112.631 18.6985C113.16 18.6985 113.865 18.6985 114.394 18.8683C116.51 19.5477 118.411 21.0534 118.411 23.6009Z" fill="white"/>
<path d="M81.0039 67.998V85.6318M81.0039 67.998L75.5781 73.4238M81.0039 67.998L86.4297 73.4238" stroke="white" stroke-width="2.5" stroke-linecap="round" stroke-linejoin="round"/>
<path d="M85.7549 20.0446H77.4449C76.597 20.0446 76.2578 19.1955 76.2578 18.8558C76.2578 18.0066 77.1057 17.667 77.4449 17.667H85.7549C86.4332 17.667 86.9419 18.5161 86.9419 18.8558C86.9419 19.705 86.4332 20.0446 85.7549 20.0446Z" fill="#2D5887"/>
<path d="M72.6903 20.0446H72.3511C71.5032 20.0446 71.1641 19.1955 71.1641 18.8558C71.1641 18.0066 72.0119 17.667 72.3511 17.667H72.6903C73.5383 17.667 73.8775 18.5161 73.8775 18.8558C73.8775 19.705 73.3688 20.0446 72.6903 20.0446Z" fill="#2D5887"/>
</g>
<path d="M13.6961 87.3498C14.8959 87.3498 15.9624 86.4152 15.9624 85.0801C15.9624 83.8787 15.0292 82.8105 13.6961 82.8105C12.3629 82.9441 11.4297 83.8787 11.4297 85.0801C11.4297 86.2817 12.3629 87.3498 13.6961 87.3498Z" fill="url(#paint0_linear_56854_32626)"/>
<path d="M27.1609 136.616C28.3608 136.616 29.4273 135.683 29.4273 134.347C29.4273 133.146 28.4941 132.078 27.1609 132.078C25.961 132.078 24.8945 133.012 24.8945 134.347C25.0279 135.549 25.961 136.616 27.1609 136.616Z" fill="url(#paint1_linear_56854_32626)"/>
<path d="M146.438 42.1891C147.637 42.1891 148.571 41.2546 148.571 40.053C148.571 38.8515 147.637 37.917 146.438 37.917C145.238 37.917 144.305 38.8515 144.305 40.053C144.305 41.2546 145.238 42.1891 146.438 42.1891Z" fill="url(#paint2_linear_56854_32626)"/>
<circle cx="80.5413" cy="82.5413" r="18.5413" fill="#F5F6FA"/>
<path d="M91.1029 72.3918L69.1921 80.8467C67.9573 81.3232 67.9883 82.0156 69.2551 82.3915L74.5492 83.9624L76.7017 90.3673C76.9835 91.2058 77.7197 91.3826 78.3494 90.7588L81.1264 88.0079L86.6081 92.0249C87.3203 92.5468 88.0525 92.2721 88.2447 91.4059L92.2449 73.3812C92.4366 72.5175 91.926 72.0742 91.1029 72.3918ZM87.7686 76.4672L78.4225 84.7942C78.2545 84.9439 78.1024 85.2406 78.0791 85.4603L77.6664 89.3395C77.6201 89.775 77.4699 89.793 77.3314 89.3755L75.523 83.9243C75.4522 83.711 75.5491 83.4496 75.738 83.3363L87.5905 76.2272C88.3458 75.7742 88.4263 75.8812 87.7686 76.4672Z" fill="#4B4D59"/>
<defs>
<linearGradient id="paint0_linear_56854_32626" x1="11.4297" y1="85.12" x2="15.7393" y2="85.12" gradientUnits="userSpaceOnUse">
<stop stop-color="#83A6FF"/>
<stop offset="1" stop-color="#5A78FF"/>
</linearGradient>
<linearGradient id="paint1_linear_56854_32626" x1="24.9871" y1="134.36" x2="29.2967" y2="134.36" gradientUnits="userSpaceOnUse">
<stop offset="0.9999" stop-color="#8697FF"/>
<stop offset="1" stop-color="#F53689"/>
</linearGradient>
<linearGradient id="paint2_linear_56854_32626" x1="144.357" y1="40.1441" x2="148.404" y2="40.1441" gradientUnits="userSpaceOnUse">
<stop stop-color="#83A6FF"/>
<stop offset="1" stop-color="#5A78FF"/>
</linearGradient>
</defs>
</svg>
